<svg xmlns="http://www.w3.org/2000/svg" xmlns:xlink="http://www.w3.org/1999/xlink" width="1040" height="711.3"><rect width="1040" height="711.3" rx="5" ry="5" class="a"/><svg y="0%" x="0%"><circle cx="20" cy="20" r="6" fill="#ff5f58"/><circle cx="40" cy="20" r="6" fill="#ffbd2e"/><circle cx="60" cy="20" r="6" fill="#18c132"/></svg><svg height="651.3" viewBox="0 0 100 65.13" width="1000" x="15" xmlns="http://www.w3.org/2000/svg" xmlns:xlink="http://www.w3.org/1999/xlink" y="50"><style>@keyframes k{0%{transform:translateX(0)}.8%{transform:translateX(-100px)}1.1%{transform:translateX(-200px)}99.5%{transform:translateX(-300px)}99.8%{transform:translateX(-400px)}to{transform:translateX(-500px)}}.a{fill:#282d35}.f{fill:#b9c0cb}.f,.g,.h,.m{white-space:pre}.g{fill:#b9c0cb;font-weight:700}.h,.m{fill:#a8cc8c}.m{fill:#66c2cd;font-weight:700}</style><g font-family="Monaco,Consolas,Menlo,'Bitstream Vera Sans Mono','Powerline Symbols',monospace" font-size="1.67"><defs><symbol id="1"><text y="1.67" class="f">$</text><text x="2.004" y="1.67" class="f">python</text><text x="9.018" y="1.67" class="f">run_attack_suite.py</text></symbol><symbol id="2"><text x="26.052" y="1.67" class="f">BOLT</text><text x="31.062" y="1.67" class="f">—</text><text x="33.066" y="1.67" class="f">Attack</text><text x="40.08" y="1.67" class="f">Suite</text><text x="46.092" y="1.67" class="f">Results</text></symbol><symbol id="3"><text y="1.67" class="f">┏━━━━━━━━━━┳━━━━━━━━━━━━━━━━━━┳━━━━━━━━━┳━━━━━━━━━┳━━━━━━━━━━━━━━━━━━━━━━━━━━━━┓</text></symbol><symbol id="4"><text y="1.67" class="f">┃</text><text x="2.004" y="1.67" class="g">Time</text><text x="11.022" y="1.67" class="f">┃</text><text x="13.026" y="1.67" class="g">Attack</text><text x="30.06" y="1.67" class="f">┃</text><text x="32.064" y="1.67" class="g">Version</text><text x="40.08" y="1.67" class="f">┃</text><text x="42.084" y="1.67" class="g">Result</text><text x="50.1" y="1.67" class="f">┃</text><text x="52.104" y="1.67" class="g">Detail</text><text x="79.158" y="1.67" class="f">┃</text></symbol><symbol id="5"><text y="1.67" class="f">┡━━━━━━━━━━╇━━━━━━━━━━━━━━━━━━╇━━━━━━━━━╇━━━━━━━━━╇━━━━━━━━━━━━━━━━━━━━━━━━━━━━┩</text></symbol><symbol id="6"><text y="1.67" class="f">│</text><text x="2.004" y="1.67" class="h">04:14:55</text><text x="11.022" y="1.67" class="f">│</text><text x="13.026" y="1.67" class="h">downgrade_attack</text><text x="30.06" y="1.67" class="f">│</text><text x="32.064" y="1.67" class="h">1</text><text x="40.08" y="1.67" class="f">│</text><text x="42.084" y="1.67" class="h">BLOCKED</text><text x="50.1" y="1.67" class="f">│</text><text x="52.104" y="1.67" class="h">replay</text><text x="59.118" y="1.67" class="h">of</text><text x="62.124" y="1.67" class="h">old</text><text x="66.132" y="1.67" class="h">signed</text><text x="73.146" y="1.67" class="h">image</text><text x="79.158" y="1.67" class="f">│</text></symbol><symbol id="7"><text y="1.67" class="f">│</text><text x="2.004" y="1.67" class="h">04:14:55</text><text x="11.022" y="1.67" class="f">│</text><text x="13.026" y="1.67" class="h">strip_signature</text><text x="30.06" y="1.67" class="f">│</text><text x="32.064" y="1.67" class="h">1</text><text x="40.08" y="1.67" class="f">│</text><text x="42.084" y="1.67" class="h">BLOCKED</text><text x="50.1" y="1.67" class="f">│</text><text x="52.104" y="1.67" class="h">signature</text><text x="62.124" y="1.67" class="h">zeroed</text><text x="69.138" y="1.67" class="h">out</text><text x="79.158" y="1.67" class="f">│</text></symbol><symbol id="8"><text y="1.67" class="f">│</text><text x="2.004" y="1.67" class="h">04:14:55</text><text x="11.022" y="1.67" class="f">│</text><text x="13.026" y="1.67" class="h">mitm_channel</text><text x="30.06" y="1.67" class="f">│</text><text x="32.064" y="1.67" class="h">1</text><text x="40.08" y="1.67" class="f">│</text><text x="42.084" y="1.67" class="h">BLOCKED</text><text x="50.1" y="1.67" class="f">│</text><text x="52.104" y="1.67" class="h">tampered</text><text x="61.122" y="1.67" class="h">in</text><text x="64.128" y="1.67" class="h">transit</text><text x="79.158" y="1.67" class="f">│</text></symbol><symbol id="9"><text y="1.67" class="f">│</text><text x="2.004" y="1.67" class="h">04:14:55</text><text x="11.022" y="1.67" class="f">│</text><text x="13.026" y="1.67" class="h">power_loss_sim</text><text x="30.06" y="1.67" class="f">│</text><text x="32.064" y="1.67" class="h">1</text><text x="40.08" y="1.67" class="f">│</text><text x="42.084" y="1.67" class="h">BLOCKED</text><text x="50.1" y="1.67" class="f">│</text><text x="52.104" y="1.67" class="h">truncated</text><text x="62.124" y="1.67" class="h">mid-write</text><text x="79.158" y="1.67" class="f">│</text></symbol><symbol id="10"><text y="1.67" class="f">└──────────┴──────────────────┴─────────┴─────────┴────────────────────────────┘</text></symbol><symbol id="a"><path fill="transparent" d="M0 0h100v31H0z"/></symbol><symbol id="b"><path fill="#6f7683" d="M0 0h1.102v2.171H0z"/></symbol></defs><path class="a" d="M0 0h100v65.13H0z"/><g style="animation-duration:1.341918s;animation-iteration-count:infinite;animation-name:k;animation-timing-function:steps(1,end)"><svg width="600"><svg><use xlink:href="#a"/><use xlink:href="#b" x="-.004"/></svg><svg x="100"><use xlink:href="#a"/><use xlink:href="#b" x="-.004"/></svg><svg x="200"><use xlink:href="#a"/><use xlink:href="#b" x="-.004" y="2.146"/><use xlink:href="#1"/></svg><svg x="300"><use xlink:href="#a"/><use xlink:href="#b" x="-.004" y="6.488"/><use xlink:href="#1"/><use xlink:href="#2" y="2.171"/><use xlink:href="#3" y="4.342"/></svg><svg x="400"><use xlink:href="#a"/><use xlink:href="#b" x="-.004" y="21.685"/><use xlink:href="#1"/><use xlink:href="#2" y="2.171"/><use xlink:href="#3" y="4.342"/><use xlink:href="#4" y="6.513"/><use xlink:href="#5" y="8.684"/><use xlink:href="#6" y="10.855"/><use xlink:href="#7" y="13.026"/><use xlink:href="#8" y="15.197"/><use xlink:href="#9" y="17.368"/><use xlink:href="#10" y="19.539"/></svg><svg x="500"><use xlink:href="#a"/><use xlink:href="#b" x="-.004" y="26.027"/><use xlink:href="#1"/><use xlink:href="#2" y="2.171"/><use xlink:href="#3" y="4.342"/><use xlink:href="#4" y="6.513"/><use xlink:href="#5" y="8.684"/><use xlink:href="#6" y="10.855"/><use xlink:href="#7" y="13.026"/><use xlink:href="#8" y="15.197"/><use xlink:href="#9" y="17.368"/><use xlink:href="#10" y="19.539"/><text y="25.551" class="m">4</text><text x="1.002" y="25.551" class="f">/</text><text x="2.004" y="25.551" class="m">4</text><text x="4.008" y="25.551" class="f">attacks</text><text x="12.024" y="25.551" class="f">blocked,</text><text x="21.042" y="25.551" class="m">0</text><text x="23.046" y="25.551" class="f">succeeded.</text></svg></svg></g></g></svg></svg>